<?xml version="1.0"?>
<svg xmlns="http://www.w3.org/2000/svg" xmlns:xlink="http://www.w3.org/1999/xlink" xmlns:svgjs="http://svgjs.com/svgjs" version="1.1" width="512" height="512" x="0" y="0" viewBox="0 0 297 297" style="enable-background:new 0 0 512 512" xml:space="preserve" class=""><g><link type="text/css" id="dark-mode" rel="stylesheet"/><style type="text/css" id="dark-mode-custom-style"/>
<g xmlns="http://www.w3.org/2000/svg">
	<path d="M286.1,187.196H158.706c17.349-14.93,28.366-37.021,28.366-61.651c0-5.439-4.41-9.849-9.849-9.849H34.224   c-5.439,0-9.849,4.41-9.849,9.849c0,24.63,11.018,46.721,28.366,61.651H9.849c-5.439,0-9.849,4.41-9.849,9.849v48.75   c0,5.439,4.41,9.849,9.849,9.849h14.527v22.652c0,5.439,4.41,9.849,9.849,9.849h48.75c5.439,0,9.849-4.41,9.849-9.849v-22.652   h110.303v22.652c0,5.439,4.41,9.849,9.849,9.849h48.75c5.439,0,9.849-4.41,9.849-9.849v-22.652H286.1   c5.439,0,9.849-4.41,9.849-9.849v-48.75C295.948,191.605,291.538,187.196,286.1,187.196z M44.858,135.393H166.59   c-4.728,29.331-30.223,51.803-60.867,51.803S49.586,164.724,44.858,135.393z M73.125,268.446H44.072v-12.803h29.053V268.446z    M251.876,268.446h-29.053v-12.803h29.053V268.446z M276.251,235.946H19.697v-29.053h256.554V235.946z" fill="#f53232" data-original="#000000" style="" class=""/>
	<path d="M54.09,69.422c0.565,0,1.137-0.049,1.713-0.15l233.048-40.864c5.357-0.94,8.939-6.044,7.999-11.402   c-0.94-5.357-6.037-8.942-11.402-7.999L52.4,49.871c-5.357,0.94-8.939,6.044-7.999,11.402C45.24,66.055,49.397,69.422,54.09,69.422   z" fill="#f53232" data-original="#000000" style="" class=""/>
	<path d="M286.257,57.235L54.907,78.282c-5.417,0.492-9.408,5.284-8.916,10.701c0.465,5.114,4.76,8.957,9.797,8.957   c0.299,0,0.601-0.013,0.904-0.041l231.35-21.046c5.417-0.493,9.408-5.284,8.916-10.701   C296.465,60.733,291.664,56.737,286.257,57.235z" fill="#f53232" data-original="#000000" style="" class=""/>
</g>
<g xmlns="http://www.w3.org/2000/svg">
</g>
<g xmlns="http://www.w3.org/2000/svg">
</g>
<g xmlns="http://www.w3.org/2000/svg">
</g>
<g xmlns="http://www.w3.org/2000/svg">
</g>
<g xmlns="http://www.w3.org/2000/svg">
</g>
<g xmlns="http://www.w3.org/2000/svg">
</g>
<g xmlns="http://www.w3.org/2000/svg">
</g>
<g xmlns="http://www.w3.org/2000/svg">
</g>
<g xmlns="http://www.w3.org/2000/svg">
</g>
<g xmlns="http://www.w3.org/2000/svg">
</g>
<g xmlns="http://www.w3.org/2000/svg">
</g>
<g xmlns="http://www.w3.org/2000/svg">
</g>
<g xmlns="http://www.w3.org/2000/svg">
</g>
<g xmlns="http://www.w3.org/2000/svg">
</g>
<g xmlns="http://www.w3.org/2000/svg">
</g>
</g></svg>
